<mxfile host="app.diagrams.net" modified="2021-09-23T07:12:14.650Z" agent="5.0 (Macintosh; Intel Mac OS X 10_15_7) AppleWebKit/537.36 (KHTML, like Gecko) Chrome/93.0.4577.82 Safari/537.36" etag="nrpW_25ALR00k5ovWZUS" version="15.2.9" type="github">
  <diagram id="r2ST4qT8B5xv6jexlV2r" name="Page-1">
    <mxGraphModel dx="1783" dy="1053" grid="1" gridSize="10" guides="1" tooltips="1" connect="1" arrows="1" fold="1" page="1" pageScale="1" pageWidth="1654" pageHeight="2336" math="0" shadow="0">
      <root>
        <mxCell id="0" />
        <mxCell id="1" parent="0" />
        <mxCell id="i0WdFly-MCmuJcqnyeuZ-4" value="" style="edgeStyle=orthogonalEdgeStyle;rounded=0;orthogonalLoop=1;jettySize=auto;html=1;fontSize=15;" edge="1" parent="1" source="i0WdFly-MCmuJcqnyeuZ-2" target="i0WdFly-MCmuJcqnyeuZ-3">
          <mxGeometry relative="1" as="geometry" />
        </mxCell>
        <mxCell id="i0WdFly-MCmuJcqnyeuZ-2" value="新增" style="rounded=1;whiteSpace=wrap;html=1;fontSize=15;" vertex="1" parent="1">
          <mxGeometry x="70" y="50" width="120" height="60" as="geometry" />
        </mxCell>
        <mxCell id="i0WdFly-MCmuJcqnyeuZ-6" value="" style="edgeStyle=orthogonalEdgeStyle;rounded=0;orthogonalLoop=1;jettySize=auto;html=1;fontSize=15;" edge="1" parent="1" source="i0WdFly-MCmuJcqnyeuZ-3" target="i0WdFly-MCmuJcqnyeuZ-5">
          <mxGeometry relative="1" as="geometry" />
        </mxCell>
        <mxCell id="i0WdFly-MCmuJcqnyeuZ-3" value="人工填写,填写记录数据" style="whiteSpace=wrap;html=1;rounded=1;fontSize=15;" vertex="1" parent="1">
          <mxGeometry x="70" y="160" width="120" height="60" as="geometry" />
        </mxCell>
        <mxCell id="i0WdFly-MCmuJcqnyeuZ-7" style="edgeStyle=orthogonalEdgeStyle;rounded=0;orthogonalLoop=1;jettySize=auto;html=1;exitX=1;exitY=0.5;exitDx=0;exitDy=0;fontSize=15;" edge="1" parent="1" source="i0WdFly-MCmuJcqnyeuZ-5">
          <mxGeometry relative="1" as="geometry">
            <mxPoint x="190" y="190" as="targetPoint" />
            <Array as="points">
              <mxPoint x="215" y="320" />
              <mxPoint x="215" y="190" />
            </Array>
          </mxGeometry>
        </mxCell>
        <mxCell id="i0WdFly-MCmuJcqnyeuZ-8" value="校验不通过则重填" style="edgeLabel;html=1;align=center;verticalAlign=middle;resizable=0;points=[];fontSize=15;" vertex="1" connectable="0" parent="i0WdFly-MCmuJcqnyeuZ-7">
          <mxGeometry x="0.0608" y="-2" relative="1" as="geometry">
            <mxPoint as="offset" />
          </mxGeometry>
        </mxCell>
        <mxCell id="i0WdFly-MCmuJcqnyeuZ-10" value="" style="edgeStyle=orthogonalEdgeStyle;rounded=0;orthogonalLoop=1;jettySize=auto;html=1;fontSize=15;" edge="1" parent="1" source="i0WdFly-MCmuJcqnyeuZ-5" target="i0WdFly-MCmuJcqnyeuZ-9">
          <mxGeometry relative="1" as="geometry" />
        </mxCell>
        <mxCell id="i0WdFly-MCmuJcqnyeuZ-5" value="表单信息格式校验" style="rhombus;whiteSpace=wrap;html=1;rounded=1;fontSize=15;" vertex="1" parent="1">
          <mxGeometry x="65" y="280" width="130" height="80" as="geometry" />
        </mxCell>
        <mxCell id="i0WdFly-MCmuJcqnyeuZ-12" value="" style="edgeStyle=orthogonalEdgeStyle;rounded=0;orthogonalLoop=1;jettySize=auto;html=1;fontSize=15;" edge="1" parent="1" source="i0WdFly-MCmuJcqnyeuZ-9" target="i0WdFly-MCmuJcqnyeuZ-11">
          <mxGeometry relative="1" as="geometry" />
        </mxCell>
        <mxCell id="i0WdFly-MCmuJcqnyeuZ-9" value="新增记录动作插入数据" style="rounded=1;whiteSpace=wrap;html=1;fontSize=15;" vertex="1" parent="1">
          <mxGeometry x="70" y="400" width="120" height="60" as="geometry" />
        </mxCell>
        <mxCell id="i0WdFly-MCmuJcqnyeuZ-14" value="" style="edgeStyle=orthogonalEdgeStyle;rounded=0;orthogonalLoop=1;jettySize=auto;html=1;fontSize=15;" edge="1" parent="1" source="i0WdFly-MCmuJcqnyeuZ-11" target="i0WdFly-MCmuJcqnyeuZ-13">
          <mxGeometry relative="1" as="geometry" />
        </mxCell>
        <mxCell id="i0WdFly-MCmuJcqnyeuZ-19" value="N" style="edgeLabel;html=1;align=center;verticalAlign=middle;resizable=0;points=[];fontSize=15;" vertex="1" connectable="0" parent="i0WdFly-MCmuJcqnyeuZ-14">
          <mxGeometry x="-0.3144" y="-1" relative="1" as="geometry">
            <mxPoint as="offset" />
          </mxGeometry>
        </mxCell>
        <mxCell id="i0WdFly-MCmuJcqnyeuZ-16" value="" style="edgeStyle=orthogonalEdgeStyle;rounded=0;orthogonalLoop=1;jettySize=auto;html=1;fontSize=15;" edge="1" parent="1" source="i0WdFly-MCmuJcqnyeuZ-11" target="i0WdFly-MCmuJcqnyeuZ-15">
          <mxGeometry relative="1" as="geometry" />
        </mxCell>
        <mxCell id="i0WdFly-MCmuJcqnyeuZ-11" value="数据插入结果校验" style="rhombus;whiteSpace=wrap;html=1;rounded=1;fontSize=15;" vertex="1" parent="1">
          <mxGeometry x="42.5" y="520" width="175" height="90" as="geometry" />
        </mxCell>
        <mxCell id="i0WdFly-MCmuJcqnyeuZ-22" style="edgeStyle=orthogonalEdgeStyle;rounded=0;orthogonalLoop=1;jettySize=auto;html=1;entryX=1;entryY=0.5;entryDx=0;entryDy=0;fontSize=15;" edge="1" parent="1" source="i0WdFly-MCmuJcqnyeuZ-13" target="i0WdFly-MCmuJcqnyeuZ-20">
          <mxGeometry relative="1" as="geometry">
            <Array as="points">
              <mxPoint x="385" y="970" />
            </Array>
          </mxGeometry>
        </mxCell>
        <mxCell id="i0WdFly-MCmuJcqnyeuZ-13" value="失败弹框提示数据插入失败" style="whiteSpace=wrap;html=1;rounded=1;fontSize=15;" vertex="1" parent="1">
          <mxGeometry x="325" y="535" width="120" height="60" as="geometry" />
        </mxCell>
        <mxCell id="i0WdFly-MCmuJcqnyeuZ-18" value="" style="edgeStyle=orthogonalEdgeStyle;rounded=0;orthogonalLoop=1;jettySize=auto;html=1;fontSize=15;" edge="1" parent="1" source="i0WdFly-MCmuJcqnyeuZ-15" target="i0WdFly-MCmuJcqnyeuZ-17">
          <mxGeometry relative="1" as="geometry" />
        </mxCell>
        <mxCell id="i0WdFly-MCmuJcqnyeuZ-15" value="更新组件数据" style="rounded=1;whiteSpace=wrap;html=1;fontSize=15;" vertex="1" parent="1">
          <mxGeometry x="70" y="660" width="120" height="60" as="geometry" />
        </mxCell>
        <mxCell id="i0WdFly-MCmuJcqnyeuZ-21" value="" style="edgeStyle=orthogonalEdgeStyle;rounded=0;orthogonalLoop=1;jettySize=auto;html=1;fontSize=15;" edge="1" parent="1" source="i0WdFly-MCmuJcqnyeuZ-17" target="i0WdFly-MCmuJcqnyeuZ-20">
          <mxGeometry relative="1" as="geometry" />
        </mxCell>
        <mxCell id="i0WdFly-MCmuJcqnyeuZ-17" value="弹框提示数据新建成功" style="rounded=1;whiteSpace=wrap;html=1;fontSize=15;" vertex="1" parent="1">
          <mxGeometry x="70" y="800" width="120" height="60" as="geometry" />
        </mxCell>
        <mxCell id="i0WdFly-MCmuJcqnyeuZ-20" value="结束" style="whiteSpace=wrap;html=1;rounded=1;fontSize=15;" vertex="1" parent="1">
          <mxGeometry x="70" y="940" width="120" height="60" as="geometry" />
        </mxCell>
        <mxCell id="i0WdFly-MCmuJcqnyeuZ-45" value="" style="edgeStyle=orthogonalEdgeStyle;rounded=0;orthogonalLoop=1;jettySize=auto;html=1;fontSize=15;" edge="1" parent="1" source="i0WdFly-MCmuJcqnyeuZ-24" target="i0WdFly-MCmuJcqnyeuZ-44">
          <mxGeometry relative="1" as="geometry" />
        </mxCell>
        <mxCell id="i0WdFly-MCmuJcqnyeuZ-24" value="编辑" style="rounded=1;whiteSpace=wrap;html=1;fontSize=15;" vertex="1" parent="1">
          <mxGeometry x="597.5" y="40" width="120" height="60" as="geometry" />
        </mxCell>
        <mxCell id="i0WdFly-MCmuJcqnyeuZ-25" value="" style="edgeStyle=orthogonalEdgeStyle;rounded=0;orthogonalLoop=1;jettySize=auto;html=1;fontSize=15;" edge="1" parent="1" source="i0WdFly-MCmuJcqnyeuZ-26" target="i0WdFly-MCmuJcqnyeuZ-30">
          <mxGeometry relative="1" as="geometry" />
        </mxCell>
        <mxCell id="i0WdFly-MCmuJcqnyeuZ-26" value="人工填写,记录填充到表单并进行修改" style="whiteSpace=wrap;html=1;rounded=1;fontSize=15;" vertex="1" parent="1">
          <mxGeometry x="597.5" y="250" width="120" height="60" as="geometry" />
        </mxCell>
        <mxCell id="i0WdFly-MCmuJcqnyeuZ-27" style="edgeStyle=orthogonalEdgeStyle;rounded=0;orthogonalLoop=1;jettySize=auto;html=1;exitX=1;exitY=0.5;exitDx=0;exitDy=0;fontSize=15;" edge="1" parent="1" source="i0WdFly-MCmuJcqnyeuZ-30">
          <mxGeometry relative="1" as="geometry">
            <mxPoint x="718" y="280" as="targetPoint" />
            <Array as="points">
              <mxPoint x="743" y="400" />
              <mxPoint x="743" y="280" />
              <mxPoint x="718" y="280" />
            </Array>
          </mxGeometry>
        </mxCell>
        <mxCell id="i0WdFly-MCmuJcqnyeuZ-28" value="校验不通过则重填" style="edgeLabel;html=1;align=center;verticalAlign=middle;resizable=0;points=[];fontSize=15;" vertex="1" connectable="0" parent="i0WdFly-MCmuJcqnyeuZ-27">
          <mxGeometry x="0.0608" y="-2" relative="1" as="geometry">
            <mxPoint as="offset" />
          </mxGeometry>
        </mxCell>
        <mxCell id="i0WdFly-MCmuJcqnyeuZ-29" value="" style="edgeStyle=orthogonalEdgeStyle;rounded=0;orthogonalLoop=1;jettySize=auto;html=1;fontSize=15;" edge="1" parent="1" source="i0WdFly-MCmuJcqnyeuZ-30" target="i0WdFly-MCmuJcqnyeuZ-32">
          <mxGeometry relative="1" as="geometry" />
        </mxCell>
        <mxCell id="i0WdFly-MCmuJcqnyeuZ-30" value="表单信息格式校验" style="rhombus;whiteSpace=wrap;html=1;rounded=1;fontSize=15;" vertex="1" parent="1">
          <mxGeometry x="592.5" y="360" width="130" height="80" as="geometry" />
        </mxCell>
        <mxCell id="i0WdFly-MCmuJcqnyeuZ-31" value="" style="edgeStyle=orthogonalEdgeStyle;rounded=0;orthogonalLoop=1;jettySize=auto;html=1;fontSize=15;" edge="1" parent="1" source="i0WdFly-MCmuJcqnyeuZ-32" target="i0WdFly-MCmuJcqnyeuZ-36">
          <mxGeometry relative="1" as="geometry" />
        </mxCell>
        <mxCell id="i0WdFly-MCmuJcqnyeuZ-32" value="新增记录动作插入数据" style="rounded=1;whiteSpace=wrap;html=1;fontSize=15;" vertex="1" parent="1">
          <mxGeometry x="597.5" y="480" width="120" height="60" as="geometry" />
        </mxCell>
        <mxCell id="i0WdFly-MCmuJcqnyeuZ-33" value="" style="edgeStyle=orthogonalEdgeStyle;rounded=0;orthogonalLoop=1;jettySize=auto;html=1;fontSize=15;" edge="1" parent="1" source="i0WdFly-MCmuJcqnyeuZ-36" target="i0WdFly-MCmuJcqnyeuZ-38">
          <mxGeometry relative="1" as="geometry" />
        </mxCell>
        <mxCell id="i0WdFly-MCmuJcqnyeuZ-34" value="N" style="edgeLabel;html=1;align=center;verticalAlign=middle;resizable=0;points=[];fontSize=15;" vertex="1" connectable="0" parent="i0WdFly-MCmuJcqnyeuZ-33">
          <mxGeometry x="-0.3144" y="-1" relative="1" as="geometry">
            <mxPoint as="offset" />
          </mxGeometry>
        </mxCell>
        <mxCell id="i0WdFly-MCmuJcqnyeuZ-35" value="" style="edgeStyle=orthogonalEdgeStyle;rounded=0;orthogonalLoop=1;jettySize=auto;html=1;fontSize=15;" edge="1" parent="1" source="i0WdFly-MCmuJcqnyeuZ-36" target="i0WdFly-MCmuJcqnyeuZ-40">
          <mxGeometry relative="1" as="geometry" />
        </mxCell>
        <mxCell id="i0WdFly-MCmuJcqnyeuZ-36" value="数据修改结果校验" style="rhombus;whiteSpace=wrap;html=1;rounded=1;fontSize=15;" vertex="1" parent="1">
          <mxGeometry x="570" y="585" width="175" height="90" as="geometry" />
        </mxCell>
        <mxCell id="i0WdFly-MCmuJcqnyeuZ-37" style="edgeStyle=orthogonalEdgeStyle;rounded=0;orthogonalLoop=1;jettySize=auto;html=1;entryX=1;entryY=0.5;entryDx=0;entryDy=0;fontSize=15;" edge="1" parent="1" source="i0WdFly-MCmuJcqnyeuZ-38" target="i0WdFly-MCmuJcqnyeuZ-43">
          <mxGeometry relative="1" as="geometry">
            <Array as="points">
              <mxPoint x="913" y="970" />
            </Array>
          </mxGeometry>
        </mxCell>
        <mxCell id="i0WdFly-MCmuJcqnyeuZ-38" value="失败弹框提示数据修改失败" style="whiteSpace=wrap;html=1;rounded=1;fontSize=15;" vertex="1" parent="1">
          <mxGeometry x="852.5" y="705" width="120" height="60" as="geometry" />
        </mxCell>
        <mxCell id="i0WdFly-MCmuJcqnyeuZ-39" value="" style="edgeStyle=orthogonalEdgeStyle;rounded=0;orthogonalLoop=1;jettySize=auto;html=1;fontSize=15;" edge="1" parent="1" source="i0WdFly-MCmuJcqnyeuZ-40" target="i0WdFly-MCmuJcqnyeuZ-42">
          <mxGeometry relative="1" as="geometry" />
        </mxCell>
        <mxCell id="i0WdFly-MCmuJcqnyeuZ-40" value="更新组件数据" style="rounded=1;whiteSpace=wrap;html=1;fontSize=15;" vertex="1" parent="1">
          <mxGeometry x="597.5" y="720" width="120" height="60" as="geometry" />
        </mxCell>
        <mxCell id="i0WdFly-MCmuJcqnyeuZ-41" value="" style="edgeStyle=orthogonalEdgeStyle;rounded=0;orthogonalLoop=1;jettySize=auto;html=1;fontSize=15;" edge="1" parent="1" source="i0WdFly-MCmuJcqnyeuZ-42" target="i0WdFly-MCmuJcqnyeuZ-43">
          <mxGeometry relative="1" as="geometry" />
        </mxCell>
        <mxCell id="i0WdFly-MCmuJcqnyeuZ-42" value="弹框提示数据修改成功" style="rounded=1;whiteSpace=wrap;html=1;fontSize=15;" vertex="1" parent="1">
          <mxGeometry x="597.5" y="820" width="120" height="60" as="geometry" />
        </mxCell>
        <mxCell id="i0WdFly-MCmuJcqnyeuZ-43" value="结束" style="whiteSpace=wrap;html=1;rounded=1;fontSize=15;" vertex="1" parent="1">
          <mxGeometry x="597.5" y="940" width="120" height="60" as="geometry" />
        </mxCell>
        <mxCell id="i0WdFly-MCmuJcqnyeuZ-46" value="" style="edgeStyle=orthogonalEdgeStyle;rounded=0;orthogonalLoop=1;jettySize=auto;html=1;fontSize=15;" edge="1" parent="1" source="i0WdFly-MCmuJcqnyeuZ-44" target="i0WdFly-MCmuJcqnyeuZ-26">
          <mxGeometry relative="1" as="geometry" />
        </mxCell>
        <mxCell id="i0WdFly-MCmuJcqnyeuZ-44" value="获取数据记录" style="rounded=1;whiteSpace=wrap;html=1;fontSize=15;" vertex="1" parent="1">
          <mxGeometry x="597.5" y="150" width="120" height="60" as="geometry" />
        </mxCell>
        <mxCell id="i0WdFly-MCmuJcqnyeuZ-48" style="edgeStyle=orthogonalEdgeStyle;rounded=0;orthogonalLoop=1;jettySize=auto;html=1;exitX=0.5;exitY=1;exitDx=0;exitDy=0;fontSize=15;" edge="1" parent="1" source="i0WdFly-MCmuJcqnyeuZ-47">
          <mxGeometry relative="1" as="geometry">
            <mxPoint x="1267.166666666667" y="157" as="targetPoint" />
          </mxGeometry>
        </mxCell>
        <mxCell id="i0WdFly-MCmuJcqnyeuZ-47" value="删除" style="rounded=1;whiteSpace=wrap;html=1;fontSize=15;" vertex="1" parent="1">
          <mxGeometry x="1207.5" y="37" width="120" height="60" as="geometry" />
        </mxCell>
        <mxCell id="i0WdFly-MCmuJcqnyeuZ-51" value="" style="edgeStyle=orthogonalEdgeStyle;rounded=0;orthogonalLoop=1;jettySize=auto;html=1;fontSize=15;" edge="1" parent="1" source="i0WdFly-MCmuJcqnyeuZ-49">
          <mxGeometry relative="1" as="geometry">
            <mxPoint x="1267.5" y="277" as="targetPoint" />
          </mxGeometry>
        </mxCell>
        <mxCell id="i0WdFly-MCmuJcqnyeuZ-49" value="弹框“二次确认”" style="rounded=0;whiteSpace=wrap;html=1;fontSize=15;" vertex="1" parent="1">
          <mxGeometry x="1207.5" y="157" width="120" height="60" as="geometry" />
        </mxCell>
        <mxCell id="i0WdFly-MCmuJcqnyeuZ-64" value="" style="edgeStyle=orthogonalEdgeStyle;rounded=0;orthogonalLoop=1;jettySize=auto;html=1;fontSize=15;" edge="1" parent="1" target="i0WdFly-MCmuJcqnyeuZ-52">
          <mxGeometry relative="1" as="geometry">
            <mxPoint x="1267.5" y="407" as="sourcePoint" />
          </mxGeometry>
        </mxCell>
        <mxCell id="i0WdFly-MCmuJcqnyeuZ-66" style="edgeStyle=orthogonalEdgeStyle;rounded=0;orthogonalLoop=1;jettySize=auto;html=1;entryX=0;entryY=0.75;entryDx=0;entryDy=0;fontSize=15;" edge="1" parent="1" source="i0WdFly-MCmuJcqnyeuZ-50" target="i0WdFly-MCmuJcqnyeuZ-63">
          <mxGeometry relative="1" as="geometry">
            <Array as="points">
              <mxPoint x="1145" y="345" />
              <mxPoint x="1145" y="985" />
            </Array>
          </mxGeometry>
        </mxCell>
        <mxCell id="i0WdFly-MCmuJcqnyeuZ-67" value="取消" style="edgeLabel;html=1;align=center;verticalAlign=middle;resizable=0;points=[];fontSize=15;" vertex="1" connectable="0" parent="i0WdFly-MCmuJcqnyeuZ-66">
          <mxGeometry x="-0.6023" y="1" relative="1" as="geometry">
            <mxPoint as="offset" />
          </mxGeometry>
        </mxCell>
        <mxCell id="i0WdFly-MCmuJcqnyeuZ-50" value="是否继续删除" style="rhombus;whiteSpace=wrap;html=1;rounded=0;fontSize=15;" vertex="1" parent="1">
          <mxGeometry x="1165" y="280" width="210" height="130" as="geometry" />
        </mxCell>
        <mxCell id="i0WdFly-MCmuJcqnyeuZ-65" value="" style="edgeStyle=orthogonalEdgeStyle;rounded=0;orthogonalLoop=1;jettySize=auto;html=1;fontSize=15;" edge="1" parent="1" source="i0WdFly-MCmuJcqnyeuZ-52" target="i0WdFly-MCmuJcqnyeuZ-56">
          <mxGeometry relative="1" as="geometry" />
        </mxCell>
        <mxCell id="i0WdFly-MCmuJcqnyeuZ-52" value="删除记录" style="rounded=0;whiteSpace=wrap;html=1;fontSize=15;" vertex="1" parent="1">
          <mxGeometry x="1207.5" y="460" width="120" height="60" as="geometry" />
        </mxCell>
        <mxCell id="i0WdFly-MCmuJcqnyeuZ-53" value="" style="edgeStyle=orthogonalEdgeStyle;rounded=0;orthogonalLoop=1;jettySize=auto;html=1;fontSize=15;" edge="1" parent="1" source="i0WdFly-MCmuJcqnyeuZ-56" target="i0WdFly-MCmuJcqnyeuZ-58">
          <mxGeometry relative="1" as="geometry" />
        </mxCell>
        <mxCell id="i0WdFly-MCmuJcqnyeuZ-54" value="N" style="edgeLabel;html=1;align=center;verticalAlign=middle;resizable=0;points=[];fontSize=15;" vertex="1" connectable="0" parent="i0WdFly-MCmuJcqnyeuZ-53">
          <mxGeometry x="-0.3144" y="-1" relative="1" as="geometry">
            <mxPoint as="offset" />
          </mxGeometry>
        </mxCell>
        <mxCell id="i0WdFly-MCmuJcqnyeuZ-55" value="" style="edgeStyle=orthogonalEdgeStyle;rounded=0;orthogonalLoop=1;jettySize=auto;html=1;fontSize=15;" edge="1" parent="1" source="i0WdFly-MCmuJcqnyeuZ-56" target="i0WdFly-MCmuJcqnyeuZ-60">
          <mxGeometry relative="1" as="geometry" />
        </mxCell>
        <mxCell id="i0WdFly-MCmuJcqnyeuZ-56" value="数据修改结果校验" style="rhombus;whiteSpace=wrap;html=1;rounded=1;fontSize=15;" vertex="1" parent="1">
          <mxGeometry x="1180" y="585" width="175" height="90" as="geometry" />
        </mxCell>
        <mxCell id="i0WdFly-MCmuJcqnyeuZ-57" style="edgeStyle=orthogonalEdgeStyle;rounded=0;orthogonalLoop=1;jettySize=auto;html=1;entryX=1;entryY=0.5;entryDx=0;entryDy=0;fontSize=15;" edge="1" parent="1" source="i0WdFly-MCmuJcqnyeuZ-58" target="i0WdFly-MCmuJcqnyeuZ-63">
          <mxGeometry relative="1" as="geometry">
            <Array as="points">
              <mxPoint x="1523" y="970" />
            </Array>
          </mxGeometry>
        </mxCell>
        <mxCell id="i0WdFly-MCmuJcqnyeuZ-58" value="失败弹框提示数据修改失败" style="whiteSpace=wrap;html=1;rounded=1;fontSize=15;" vertex="1" parent="1">
          <mxGeometry x="1462.5" y="705" width="120" height="60" as="geometry" />
        </mxCell>
        <mxCell id="i0WdFly-MCmuJcqnyeuZ-59" value="" style="edgeStyle=orthogonalEdgeStyle;rounded=0;orthogonalLoop=1;jettySize=auto;html=1;fontSize=15;" edge="1" parent="1" source="i0WdFly-MCmuJcqnyeuZ-60" target="i0WdFly-MCmuJcqnyeuZ-62">
          <mxGeometry relative="1" as="geometry" />
        </mxCell>
        <mxCell id="i0WdFly-MCmuJcqnyeuZ-60" value="更新组件数据" style="rounded=1;whiteSpace=wrap;html=1;fontSize=15;" vertex="1" parent="1">
          <mxGeometry x="1207.5" y="720" width="120" height="60" as="geometry" />
        </mxCell>
        <mxCell id="i0WdFly-MCmuJcqnyeuZ-61" value="" style="edgeStyle=orthogonalEdgeStyle;rounded=0;orthogonalLoop=1;jettySize=auto;html=1;fontSize=15;" edge="1" parent="1" source="i0WdFly-MCmuJcqnyeuZ-62" target="i0WdFly-MCmuJcqnyeuZ-63">
          <mxGeometry relative="1" as="geometry" />
        </mxCell>
        <mxCell id="i0WdFly-MCmuJcqnyeuZ-62" value="弹框提示数据修改成功" style="rounded=1;whiteSpace=wrap;html=1;fontSize=15;" vertex="1" parent="1">
          <mxGeometry x="1207.5" y="820" width="120" height="60" as="geometry" />
        </mxCell>
        <mxCell id="i0WdFly-MCmuJcqnyeuZ-63" value="结束" style="whiteSpace=wrap;html=1;rounded=1;fontSize=15;" vertex="1" parent="1">
          <mxGeometry x="1207.5" y="940" width="120" height="60" as="geometry" />
        </mxCell>
      </root>
    </mxGraphModel>
  </diagram>
</mxfile>
